<svg data-v-423bf9ae="" xmlns="http://www.w3.org/2000/svg" viewBox="0 0 338 90" class="iconLeft"><!----><!----><!----><g data-v-423bf9ae="" id="be271ad5-4d62-42bc-b406-eb1b6e912269" fill="#ffffff" transform="matrix(5.982053428958114,0,0,5.982053428958114,103.49567402093547,-6.116650102004272)"><path d="M2.61 13.33L1.57 13.33L1.57 13.33Q1.09 13.33 1.09 12.82L1.09 12.82L1.09 4.04L1.09 4.04Q1.09 3.53 1.57 3.53L1.57 3.53L2.58 3.53L2.58 3.53Q3.17 3.53 3.47 4.01L3.47 4.01L6.96 9.60L7.01 9.60L7.01 9.60Q6.97 9.19 6.97 8.78L6.97 8.78L6.97 4.04L6.97 4.04Q6.97 3.53 7.45 3.53L7.45 3.53L8.49 3.53L8.49 3.53Q8.97 3.53 8.97 4.04L8.97 4.04L8.97 12.82L8.97 12.82Q8.97 13.33 8.49 13.33L8.49 13.33L7.55 13.33L7.55 13.33Q6.96 13.33 6.66 12.85L6.66 12.85L3.10 7.15L3.06 7.15L3.06 7.15Q3.09 7.56 3.09 7.97L3.09 7.97L3.09 12.82L3.09 12.82Q3.09 13.33 2.61 13.33L2.61 13.33ZM10.61 9.74L10.61 9.74L10.61 9.74Q10.61 8.01 11.47 7.01L11.47 7.01L11.47 7.01Q12.34 6.02 13.92 6.02L13.92 6.02L13.92 6.02Q15.75 6.02 16.64 6.96L16.64 6.96L16.64 6.96Q17.53 7.90 17.53 9.99L17.53 9.99L17.53 9.99Q17.53 10.40 17.14 10.40L17.14 10.40L12.63 10.40L12.63 10.40Q12.74 11.54 13.19 11.83L13.19 11.83L13.19 11.83Q13.64 12.13 14.24 12.13L14.24 12.13L14.24 12.13Q14.81 12.13 15.11 11.98L15.11 11.98L15.11 11.98Q15.41 11.83 15.61 11.57L15.61 11.57L15.61 11.57Q15.85 11.27 16.19 11.47L16.19 11.47L16.87 11.89L16.87 11.89Q17.27 12.13 16.99 12.48L16.99 12.48L16.99 12.48Q16.57 12.97 16.01 13.22L16.01 13.22L16.01 13.22Q15.45 13.47 14.24 13.47L14.24 13.47L14.24 13.47Q12.28 13.47 11.44 12.47L11.44 12.47L11.44 12.47Q10.61 11.47 10.61 9.74ZM12.64 9.04L12.64 9.04L15.61 9.04L15.61 9.04Q15.61 8.30 15.24 7.83L15.24 7.83L15.24 7.83Q14.88 7.36 14.07 7.36L14.07 7.36L14.07 7.36Q13.43 7.36 13.05 7.81L13.05 7.81L13.05 7.81Q12.67 8.26 12.64 9.04ZM18.63 11.42L18.63 11.42L18.63 11.42Q18.63 10.05 19.94 9.43L19.94 9.43L19.94 9.43Q21.25 8.82 22.92 8.78L22.92 8.78L22.92 8.50L22.92 8.50Q22.92 7.88 22.61 7.62L22.61 7.62L22.61 7.62Q22.29 7.36 21.73 7.36L21.73 7.36L21.73 7.36Q21.33 7.36 21.03 7.47L21.03 7.47L21.03 7.47Q20.73 7.58 20.50 7.73L20.50 7.73L20.50 7.73Q20.28 7.88 20.10 8.03L20.10 8.03L20.10 8.03Q19.79 8.30 19.58 8.05L19.58 8.05L19.02 7.36L19.02 7.36Q18.81 7.10 19.12 6.82L19.12 6.82L19.12 6.82Q19.36 6.61 19.68 6.45L19.68 6.45L19.68 6.45Q20.00 6.30 20.52 6.16L20.52 6.16L20.52 6.16Q21.05 6.02 21.89 6.02L21.89 6.02L21.89 6.02Q23.31 6.02 24.07 6.67L24.07 6.67L24.07 6.67Q24.83 7.33 24.83 8.61L24.83 8.61L24.83 12.92L24.83 12.92Q24.83 13.33 24.42 13.33L24.42 13.33L23.30 13.33L23.30 13.33Q22.93 13.33 22.93 12.92L22.93 12.92L22.93 12.71L22.92 12.71L22.92 12.71Q22.52 13.10 21.95 13.29L21.95 13.29L21.95 13.29Q21.39 13.47 20.92 13.47L20.92 13.47L20.92 13.47Q19.80 13.47 19.22 12.92L19.22 12.92L19.22 12.92Q18.63 12.37 18.63 11.42ZM20.66 11.38L20.66 11.38L20.66 11.38Q20.66 11.61 20.75 11.79L20.75 11.79L20.75 11.79Q20.85 11.96 21.05 12.04L21.05 12.04L21.05 12.04Q21.26 12.13 21.51 12.13L21.51 12.13L21.51 12.13Q21.86 12.13 22.19 12.03L22.19 12.03L22.19 12.03Q22.52 11.94 22.92 11.58L22.92 11.58L22.92 10.10L22.92 10.10Q21.77 10.23 21.38 10.43L21.38 10.43L21.38 10.43Q20.99 10.64 20.83 10.86L20.83 10.86L20.83 10.86Q20.66 11.07 20.66 11.38ZM28.20 13.33L27.10 13.33L27.10 13.33Q26.69 13.33 26.69 12.92L26.69 12.92L26.69 6.56L26.69 6.56Q26.69 6.15 27.10 6.15L27.10 6.15L28.18 6.15L28.18 6.15Q28.59 6.15 28.59 6.56L28.59 6.56L28.59 6.96L28.62 6.96L28.62 6.96Q28.94 6.42 29.42 6.22L29.42 6.22L29.42 6.22Q29.91 6.02 30.59 6.02L30.59 6.02L30.59 6.02Q31.66 6.02 32.35 6.69L32.35 6.69L32.35 6.69Q33.05 7.36 33.05 9.13L33.05 9.13L33.05 12.92L33.05 12.92Q33.05 13.33 32.64 13.33L32.64 13.33L31.55 13.33L31.55 13.33Q31.14 13.33 31.14 12.92L31.14 12.92L31.14 9.63L31.14 9.63Q31.14 8.13 30.93 7.75L30.93 7.75L30.93 7.75Q30.73 7.36 30.05 7.36L30.05 7.36L30.05 7.36Q29.33 7.36 28.97 7.91L28.97 7.91L28.97 7.91Q28.61 8.47 28.61 10.23L28.61 10.23L28.61 12.92L28.61 12.92Q28.61 13.33 28.20 13.33L28.20 13.33ZM35.12 7.52L34.66 7.52L34.66 7.52Q34.25 7.52 34.25 7.18L34.25 7.18L34.25 6.49L34.25 6.49Q34.25 6.15 34.66 6.15L34.66 6.15L35.12 6.15L35.12 5.91L35.12 5.91Q35.12 5.61 35.27 5.35L35.27 5.35L35.79 4.43L35.79 4.43Q35.94 4.17 36.15 4.17L36.15 4.17L36.63 4.17L36.63 4.17Q37.04 4.17 37.04 4.58L37.04 4.58L37.04 6.15L38.14 6.15L38.14 6.15Q38.55 6.15 38.55 6.49L38.55 6.49L38.55 7.18L38.55 7.18Q38.55 7.52 38.14 7.52L38.14 7.52L37.04 7.52L37.04 10.91L37.04 10.91Q37.04 11.61 37.14 11.91L37.14 11.91L37.14 11.91Q37.24 12.22 37.65 12.22L37.65 12.22L37.65 12.22Q37.86 12.22 38.13 12.14L38.13 12.14L38.13 12.14Q38.40 12.07 38.55 12.00L38.55 12.00L38.55 12.00Q38.79 11.89 38.86 12.16L38.86 12.16L39.07 12.94L39.07 12.94Q39.13 13.17 38.89 13.28L38.89 13.28L38.89 13.28Q38.66 13.38 38.27 13.47L38.27 13.47L38.27 13.47Q37.88 13.56 37.48 13.56L37.48 13.56L37.48 13.56Q36.50 13.56 35.81 13.15L35.81 13.15L35.81 13.15Q35.12 12.75 35.12 11.49L35.12 11.49L35.12 7.52Z"></path></g><!----><g data-v-423bf9ae="" id="d23b13db-ef8a-4863-b143-6e8294e101a9" transform="matrix(1.0076919232883452,0,0,1.0076919232883452,-4.0455360063121475,-4.036375076592442)" stroke="none" fill="#FF850B"><path d="M84.056 21.039l-.728-.884-16.262 36.274 7.656-43.937-.384-.258a44.422 44.422 0 0 0-11.935-5.627l-.597-.18-22.417 50.002 9.011-51.7-.882.039C23.604 5.832 4.873 25.427 4.873 49.379c0 9.776 3.104 19.064 8.976 26.855l.724.959 15.844-35.34-7.553 43.346.356.257a44.437 44.437 0 0 0 11.85 6.177l.612.211 22.413-49.99-9.096 52.188.85-.006c24.456-.169 44.353-20.199 44.353-44.656a44.757 44.757 0 0 0-10.146-28.341z"></path></g><!----></svg>